<svg width="605" height="131" viewBox="0 0 605 131" fill="none" xmlns="http://www.w3.org/2000/svg">
<path d="M4 76C4 69.3726 9.37258 64 16 64H532V128H16C9.37257 128 4 122.627 4 116V76Z" fill="#41D6C7" fill-opacity="0.25"/>
<path d="M526.947 64H532V125.474C532 126.869 530.869 128 529.474 128V128C528.078 128 526.947 126.869 526.947 125.474V64Z" fill="#41D6C7"/>
<path d="M526.947 44C526.947 39.5817 530.529 36 534.947 36H596.256C600.675 36 604.256 39.5817 604.256 44V56C604.256 60.4183 600.675 64 596.256 64H526.947V44Z" fill="#41D6C7"/>
<path d="M544.505 45.5078V44.0909H552.948V45.5078H549.544V55H547.904V45.5078H544.505ZM553.836 55V46.8182H555.376V48.1179H555.461C555.61 47.6776 555.873 47.3313 556.249 47.0792C556.629 46.8235 557.059 46.6957 557.538 46.6957C557.638 46.6957 557.755 46.6992 557.89 46.7063C558.028 46.7134 558.137 46.7223 558.215 46.733V48.2564C558.151 48.2386 558.037 48.2191 557.874 48.1978C557.71 48.1729 557.547 48.1605 557.384 48.1605C557.007 48.1605 556.672 48.2404 556.377 48.4002C556.086 48.5565 555.855 48.7749 555.685 49.0554C555.514 49.3324 555.429 49.6484 555.429 50.0036V55H553.836ZM561.901 55.1811C561.382 55.1811 560.914 55.0852 560.495 54.8935C560.076 54.6982 559.744 54.4158 559.498 54.0465C559.257 53.6772 559.136 53.2244 559.136 52.6882C559.136 52.2266 559.225 51.8466 559.403 51.5483C559.58 51.25 559.82 51.0138 560.122 50.8398C560.424 50.6658 560.761 50.5344 561.134 50.4457C561.507 50.3569 561.887 50.2894 562.274 50.2433C562.764 50.1864 563.161 50.1403 563.467 50.1048C563.772 50.0657 563.994 50.0036 564.133 49.9183C564.271 49.8331 564.34 49.6946 564.34 49.5028V49.4656C564.34 49.0004 564.209 48.6399 563.946 48.3842C563.687 48.1286 563.3 48.0007 562.785 48.0007C562.249 48.0007 561.826 48.1197 561.517 48.3576C561.212 48.592 561.001 48.853 560.883 49.1406L559.387 48.7997C559.564 48.3026 559.823 47.9013 560.164 47.5959C560.509 47.2869 560.905 47.0632 561.352 46.9247C561.8 46.7827 562.27 46.7116 562.764 46.7116C563.09 46.7116 563.437 46.7507 563.802 46.8288C564.172 46.9034 564.516 47.0419 564.836 47.2443C565.159 47.4467 565.424 47.7362 565.63 48.1126C565.835 48.4854 565.938 48.9702 565.938 49.5668V55H564.383V53.8814H564.319C564.216 54.0874 564.062 54.2898 563.856 54.4886C563.65 54.6875 563.385 54.8526 563.062 54.984C562.739 55.1154 562.352 55.1811 561.901 55.1811ZM562.247 53.9027C562.687 53.9027 563.064 53.8157 563.376 53.6417C563.692 53.4677 563.932 53.2404 564.095 52.9599C564.262 52.6758 564.346 52.3722 564.346 52.049V50.9943C564.289 51.0511 564.179 51.1044 564.016 51.1541C563.856 51.2003 563.673 51.2411 563.467 51.2766C563.261 51.3086 563.06 51.3388 562.865 51.3672C562.67 51.392 562.506 51.4134 562.375 51.4311C562.066 51.4702 561.784 51.5359 561.528 51.6282C561.276 51.7205 561.073 51.8537 560.921 52.0277C560.772 52.1982 560.697 52.4254 560.697 52.7095C560.697 53.1037 560.843 53.402 561.134 53.6044C561.425 53.8033 561.796 53.9027 562.247 53.9027ZM574.766 46.8182L571.799 55H570.095L567.122 46.8182H568.832L570.904 53.1143H570.99L573.056 46.8182H574.766ZM579.511 55.1651C578.705 55.1651 578.011 54.9929 577.428 54.6484C576.849 54.3004 576.402 53.8121 576.086 53.1836C575.773 52.5515 575.617 51.8111 575.617 50.9624C575.617 50.1243 575.773 49.3857 576.086 48.7464C576.402 48.1072 576.842 47.6083 577.407 47.2496C577.975 46.891 578.639 46.7116 579.399 46.7116C579.861 46.7116 580.308 46.788 580.741 46.9407C581.175 47.0934 581.563 47.3331 581.908 47.6598C582.252 47.9865 582.524 48.4109 582.723 48.9329C582.922 49.4513 583.021 50.0817 583.021 50.8239V51.3885H576.517V50.1953H581.46C581.46 49.7763 581.375 49.4052 581.205 49.082C581.034 48.7553 580.795 48.4979 580.486 48.3097C580.18 48.1214 579.822 48.0273 579.41 48.0273C578.962 48.0273 578.572 48.1374 578.238 48.3576C577.908 48.5742 577.652 48.8583 577.471 49.2099C577.293 49.5579 577.204 49.9361 577.204 50.3445V51.2766C577.204 51.8235 577.3 52.2887 577.492 52.6722C577.687 53.0558 577.959 53.3487 578.307 53.5511C578.655 53.75 579.062 53.8494 579.527 53.8494C579.829 53.8494 580.104 53.8068 580.353 53.7216C580.601 53.6328 580.816 53.5014 580.997 53.3274C581.178 53.1534 581.317 52.9386 581.413 52.6829L582.92 52.9545C582.799 53.3984 582.583 53.7873 582.27 54.1211C581.961 54.4513 581.572 54.7088 581.104 54.8935C580.638 55.0746 580.108 55.1651 579.511 55.1651ZM586.381 44.0909V55H584.788V44.0909H586.381Z" fill="white"/>
<path d="M28.334 73.9091H39.0123L49.2943 93.3281H49.7346L60.0166 73.9091H70.6948L54.2481 103.06V119H44.7808V103.06L28.334 73.9091ZM83.9216 119.661C80.5016 119.661 77.544 118.934 75.0487 117.481C72.5681 116.013 70.6526 113.973 69.3022 111.36C67.9519 108.733 67.2767 105.687 67.2767 102.223C67.2767 98.7296 67.9519 95.6766 69.3022 93.0639C70.6526 90.4366 72.5681 88.3963 75.0487 86.9432C77.544 85.4754 80.5016 84.7415 83.9216 84.7415C87.3415 84.7415 90.2918 85.4754 92.7724 86.9432C95.2677 88.3963 97.1905 90.4366 98.5409 93.0639C99.8913 95.6766 100.566 98.7296 100.566 102.223C100.566 105.687 99.8913 108.733 98.5409 111.36C97.1905 113.973 95.2677 116.013 92.7724 117.481C90.2918 118.934 87.3415 119.661 83.9216 119.661ZM83.9656 112.395C85.5215 112.395 86.8205 111.955 87.8626 111.074C88.9048 110.179 89.69 108.96 90.2184 107.419C90.7615 105.878 91.0331 104.124 91.0331 102.157C91.0331 100.19 90.7615 98.4361 90.2184 96.8949C89.69 95.3537 88.9048 94.1354 87.8626 93.2401C86.8205 92.3447 85.5215 91.897 83.9656 91.897C82.395 91.897 81.074 92.3447 80.0025 93.2401C78.9457 94.1354 78.1458 95.3537 77.6027 96.8949C77.0743 98.4361 76.8101 100.19 76.8101 102.157C76.8101 104.124 77.0743 105.878 77.6027 107.419C78.1458 108.96 78.9457 110.179 80.0025 111.074C81.074 111.955 82.395 112.395 83.9656 112.395ZM128.352 104.601V85.1818H137.731V119H128.726V112.857H128.374C127.611 114.839 126.341 116.431 124.565 117.635C122.804 118.839 120.653 119.44 118.114 119.44C115.854 119.44 113.865 118.927 112.147 117.899C110.43 116.872 109.087 115.411 108.118 113.518C107.164 111.624 106.68 109.357 106.665 106.714V85.1818H116.044V105.041C116.059 107.037 116.595 108.615 117.652 109.775C118.708 110.934 120.125 111.514 121.901 111.514C123.031 111.514 124.088 111.257 125.071 110.744C126.055 110.215 126.847 109.437 127.449 108.41C128.066 107.382 128.367 106.113 128.352 104.601ZM145.234 119V85.1818H154.327V91.0824H154.679C155.295 88.9834 156.33 87.3982 157.783 86.3267C159.236 85.2405 160.91 84.6974 162.803 84.6974C163.273 84.6974 163.779 84.7268 164.322 84.7855C164.865 84.8442 165.342 84.925 165.753 85.0277V93.3501C165.313 93.218 164.704 93.1006 163.926 92.9979C163.148 92.8951 162.436 92.8438 161.79 92.8438C160.411 92.8438 159.178 93.1446 158.091 93.7464C157.02 94.3336 156.169 95.1555 155.538 96.2124C154.921 97.2692 154.613 98.4875 154.613 99.8672V119H145.234ZM183.411 81.7692V73.9091H220.444V81.7692H206.639V119H197.216V81.7692H183.411ZM236.742 119.661C233.322 119.661 230.364 118.934 227.869 117.481C225.388 116.013 223.473 113.973 222.123 111.36C220.772 108.733 220.097 105.687 220.097 102.223C220.097 98.7296 220.772 95.6766 222.123 93.0639C223.473 90.4366 225.388 88.3963 227.869 86.9432C230.364 85.4754 233.322 84.7415 236.742 84.7415C240.162 84.7415 243.112 85.4754 245.593 86.9432C248.088 88.3963 250.011 90.4366 251.361 93.0639C252.712 95.6766 253.387 98.7296 253.387 102.223C253.387 105.687 252.712 108.733 251.361 111.36C250.011 113.973 248.088 116.013 245.593 117.481C243.112 118.934 240.162 119.661 236.742 119.661ZM236.786 112.395C238.342 112.395 239.641 111.955 240.683 111.074C241.725 110.179 242.51 108.96 243.039 107.419C243.582 105.878 243.853 104.124 243.853 102.157C243.853 100.19 243.582 98.4361 243.039 96.8949C242.51 95.3537 241.725 94.1354 240.683 93.2401C239.641 92.3447 238.342 91.897 236.786 91.897C235.215 91.897 233.894 92.3447 232.823 93.2401C231.766 94.1354 230.966 95.3537 230.423 96.8949C229.895 98.4361 229.63 100.19 229.63 102.157C229.63 104.124 229.895 105.878 230.423 107.419C230.966 108.96 231.766 110.179 232.823 111.074C233.894 111.955 235.215 112.395 236.786 112.395ZM281.172 104.601V85.1818H290.552V119H281.547V112.857H281.194C280.431 114.839 279.161 116.431 277.385 117.635C275.624 118.839 273.474 119.44 270.934 119.44C268.674 119.44 266.685 118.927 264.968 117.899C263.25 116.872 261.907 115.411 260.939 113.518C259.985 111.624 259.5 109.357 259.485 106.714V85.1818H268.865V105.041C268.879 107.037 269.415 108.615 270.472 109.775C271.529 110.934 272.945 111.514 274.721 111.514C275.851 111.514 276.908 111.257 277.892 110.744C278.875 110.215 279.668 109.437 280.27 108.41C280.886 107.382 281.187 106.113 281.172 104.601ZM298.054 119V85.1818H307.147V91.0824H307.499C308.116 88.9834 309.15 87.3982 310.604 86.3267C312.057 85.2405 313.73 84.6974 315.623 84.6974C316.093 84.6974 316.6 84.7268 317.143 84.7855C317.686 84.8442 318.163 84.925 318.574 85.0277V93.3501C318.133 93.218 317.524 93.1006 316.746 92.9979C315.968 92.8951 315.256 92.8438 314.611 92.8438C313.231 92.8438 311.998 93.1446 310.912 93.7464C309.84 94.3336 308.989 95.1555 308.358 96.2124C307.741 97.2692 307.433 98.4875 307.433 99.8672V119H298.054ZM367.848 88.4844C367.54 87.4129 367.107 86.4661 366.549 85.6442C365.991 84.8075 365.309 84.103 364.501 83.5305C363.709 82.9434 362.799 82.4957 361.771 82.1875C360.758 81.8793 359.636 81.7251 358.403 81.7251C356.098 81.7251 354.073 82.2976 352.326 83.4425C350.594 84.5874 349.243 86.2533 348.275 88.4403C347.306 90.6127 346.822 93.2694 346.822 96.4105C346.822 99.5516 347.299 102.223 348.253 104.425C349.207 106.626 350.557 108.307 352.304 109.467C354.051 110.612 356.113 111.184 358.491 111.184C360.648 111.184 362.49 110.802 364.017 110.039C365.558 109.261 366.732 108.168 367.54 106.759C368.362 105.349 368.773 103.683 368.773 101.761L370.71 102.047H359.085V94.8693H377.954V100.55C377.954 104.513 377.117 107.918 375.444 110.766C373.77 113.598 371.466 115.786 368.53 117.327C365.595 118.853 362.234 119.616 358.447 119.616C354.219 119.616 350.506 118.684 347.306 116.82C344.106 114.942 341.611 112.277 339.82 108.828C338.044 105.364 337.156 101.254 337.156 96.4986C337.156 92.8437 337.685 89.5852 338.741 86.723C339.813 83.8461 341.31 81.4096 343.233 79.4134C345.156 77.4171 347.394 75.898 349.948 74.8558C352.502 73.8137 355.269 73.2926 358.248 73.2926C360.802 73.2926 363.18 73.6669 365.382 74.4155C367.584 75.1494 369.536 76.1915 371.239 77.5419C372.956 78.8923 374.358 80.4995 375.444 82.3636C376.53 84.2131 377.227 86.2533 377.535 88.4844H367.848ZM406.625 104.601V85.1818H416.005V119H407V112.857H406.647C405.884 114.839 404.615 116.431 402.838 117.635C401.077 118.839 398.927 119.44 396.387 119.44C394.127 119.44 392.138 118.927 390.421 117.899C388.704 116.872 387.36 115.411 386.392 113.518C385.438 111.624 384.953 109.357 384.939 106.714V85.1818H394.318V105.041C394.333 107.037 394.868 108.615 395.925 109.775C396.982 110.934 398.398 111.514 400.174 111.514C401.305 111.514 402.361 111.257 403.345 110.744C404.328 110.215 405.121 109.437 405.723 108.41C406.339 107.382 406.64 106.113 406.625 104.601ZM423.507 119V85.1818H432.886V119H423.507ZM428.219 80.8224C426.824 80.8224 425.628 80.3601 424.63 79.4354C423.646 78.496 423.155 77.3731 423.155 76.0668C423.155 74.7751 423.646 73.6669 424.63 72.7422C425.628 71.8028 426.824 71.3331 428.219 71.3331C429.613 71.3331 430.802 71.8028 431.785 72.7422C432.783 73.6669 433.283 74.7751 433.283 76.0668C433.283 77.3731 432.783 78.496 431.785 79.4354C430.802 80.3601 429.613 80.8224 428.219 80.8224ZM452.861 119.55C450.293 119.55 447.966 118.89 445.882 117.569C443.812 116.233 442.168 114.274 440.95 111.69C439.746 109.092 439.145 105.907 439.145 102.135C439.145 98.2599 439.768 95.0381 441.016 92.4695C442.264 89.8861 443.922 87.956 445.992 86.679C448.076 85.3873 450.359 84.7415 452.839 84.7415C454.733 84.7415 456.311 85.0644 457.573 85.7102C458.85 86.3414 459.877 87.134 460.655 88.0881C461.448 89.0275 462.05 89.9522 462.461 90.8622H462.747V73.9091H472.104V119H462.857V113.584H462.461C462.02 114.523 461.396 115.455 460.589 116.38C459.797 117.29 458.762 118.046 457.485 118.648C456.222 119.25 454.681 119.55 452.861 119.55ZM455.833 112.087C457.345 112.087 458.622 111.676 459.664 110.854C460.721 110.017 461.529 108.85 462.086 107.353C462.659 105.856 462.945 104.102 462.945 102.091C462.945 100.08 462.666 98.3333 462.108 96.8509C461.551 95.3684 460.743 94.2235 459.686 93.4162C458.63 92.6089 457.345 92.2053 455.833 92.2053C454.292 92.2053 452.993 92.6236 451.936 93.4602C450.88 94.2969 450.08 95.4564 449.537 96.9389C448.994 98.4214 448.722 100.139 448.722 102.091C448.722 104.058 448.994 105.797 449.537 107.309C450.094 108.806 450.894 109.98 451.936 110.832C452.993 111.668 454.292 112.087 455.833 112.087ZM495.227 119.661C491.749 119.661 488.754 118.956 486.245 117.547C483.749 116.123 481.826 114.112 480.476 111.514C479.126 108.902 478.451 105.812 478.451 102.245C478.451 98.7663 479.126 95.7133 480.476 93.0859C481.826 90.4586 483.727 88.411 486.178 86.9432C488.644 85.4754 491.536 84.7415 494.853 84.7415C497.084 84.7415 499.161 85.1011 501.084 85.8203C503.022 86.5249 504.71 87.589 506.148 89.0128C507.601 90.4366 508.731 92.2273 509.539 94.3849C510.346 96.5279 510.75 99.0379 510.75 101.915V104.491H482.193V98.6783H501.921C501.921 97.3279 501.627 96.1316 501.04 95.0895C500.453 94.0473 499.638 93.2327 498.596 92.6456C497.569 92.0438 496.372 91.7429 495.007 91.7429C493.584 91.7429 492.321 92.0732 491.22 92.7337C490.134 93.3795 489.283 94.2528 488.666 95.3537C488.05 96.4399 487.734 97.6508 487.72 98.9865V104.513C487.72 106.186 488.028 107.632 488.644 108.85C489.276 110.068 490.164 111.008 491.308 111.668C492.453 112.329 493.811 112.659 495.382 112.659C496.424 112.659 497.378 112.512 498.244 112.219C499.11 111.925 499.851 111.485 500.468 110.898C501.084 110.311 501.554 109.591 501.877 108.74L510.551 109.312C510.111 111.397 509.208 113.217 507.843 114.773C506.493 116.314 504.746 117.518 502.603 118.384C500.475 119.235 498.016 119.661 495.227 119.661Z" fill="#333333"/>
</svg>

